<?xml version="1.0" encoding="UTF-8" standalone="no"?>
<svg width="11px" height="10px" viewBox="0 0 11 10" version="1.1" xmlns="http://www.w3.org/2000/svg" xmlns:xlink="http://www.w3.org/1999/xlink" xmlns:sketch="http://www.bohemiancoding.com/sketch/ns">
    <!-- Generator: Sketch 3.4.2 (15855) - http://www.bohemiancoding.com/sketch -->
    <title>icon-twitter</title>
    <desc>Created with Sketch.</desc>
    <defs></defs>
    <g id="Resume" stroke="none" stroke-width="1" fill="none" fill-rule="evenodd" sketch:type="MSPage">
        <g sketch:type="MSArtboardGroup" transform="translate(-433.000000, -269.000000)" id="Group-+-Group-Copy" fill="#FFFFFF">
            <g sketch:type="MSLayerGroup" transform="translate(400.000000, 201.000000)">
                <g id="Group" sketch:type="MSShapeGroup">
                    <g id="Oval-7-+-Path" transform="translate(26.000000, 60.000000)">
                        <path d="M12.2992202,10.4181653 L12.3230645,10.8113469 L11.9256592,10.7632023 C10.4791037,10.5786476 9.21535478,9.95276666 8.14236038,8.90160761 L7.61778534,8.38004014 L7.48266753,8.76519766 C7.19653569,9.62377795 7.37934214,10.5305029 7.97545014,11.1403357 C8.29337441,11.4773485 8.22184145,11.5254932 7.67342209,11.3248903 C7.48266753,11.2606974 7.31575729,11.2125527 7.29986107,11.236625 C7.24422433,11.2927938 7.43497889,12.0229883 7.58599291,12.3118564 C7.79264369,12.7130622 8.21389334,13.1062438 8.67488353,13.3389431 L9.06434075,13.5234978 L8.60335057,13.5315219 C8.15825659,13.5315219 8.14236038,13.539546 8.19004902,13.7080524 C8.34901115,14.2296199 8.97691158,14.7832838 9.67634497,15.0240073 L10.1691276,15.1925137 L9.73992982,15.4492853 C9.10408129,15.8183946 8.35695926,16.0270216 7.60983723,16.0430698 C7.25217243,16.051094 6.95809249,16.0831904 6.95809249,16.1072628 C6.95809249,16.1875039 7.9277615,16.6368543 8.49207707,16.8133849 C10.1850238,17.3349523 12.1958948,17.1102771 13.706035,16.2196004 C14.7790294,15.5856953 15.8520238,14.3259093 16.3527546,13.1062438 C16.6229902,12.4562905 16.8932258,11.2687215 16.8932258,10.6990093 C16.8932258,10.3299001 16.9170701,10.2817554 17.3621641,9.84042905 C17.6244516,9.58365737 17.8708429,9.30281335 17.9185316,9.22257221 C17.9980126,9.07011402 17.9900645,9.07011402 17.5847111,9.20652398 C16.909122,9.44724742 16.8137448,9.41515096 17.1475652,9.05406579 C17.3939565,8.79729412 17.6880365,8.33189546 17.6880365,8.1954855 C17.6880365,8.17141316 17.5688149,8.21153373 17.4336971,8.28375077 C17.2906312,8.36399191 16.9727069,8.48435364 16.7342637,8.55657067 L16.3050659,8.69298062 L15.9156087,8.42818483 C15.7010098,8.28375077 15.3989818,8.12326847 15.2400196,8.07512378 C14.8346662,7.96278617 14.2147139,7.9788344 13.849101,8.10722024 C12.8555876,8.46830541 12.2276872,9.39910273 12.2992202,10.4181653 Z" id="icon-twitter"></path>
                    </g>
                </g>
            </g>
        </g>
    </g>
</svg>