<?xml version="1.0" encoding="UTF-8" standalone="no"?>
<svg width="16px" height="16px" viewBox="0 0 16 16" version="1.1" xmlns="http://www.w3.org/2000/svg" xmlns:xlink="http://www.w3.org/1999/xlink" xmlns:sketch="http://www.bohemiancoding.com/sketch/ns">
    <!-- Generator: Sketch 3.4.2 (15855) - http://www.bohemiancoding.com/sketch -->
    <title>icon-dribbble</title>
    <desc>Created with Sketch.</desc>
    <defs></defs>
    <g id="Resume" stroke="none" stroke-width="1" fill="none" fill-rule="evenodd" sketch:type="MSPage">
        <g sketch:type="MSArtboardGroup" transform="translate(-430.000000, -333.000000)" id="Group-+-Group-Copy" fill="#FFFFFF">
            <g sketch:type="MSLayerGroup" transform="translate(400.000000, 201.000000)">
                <g id="Group" sketch:type="MSShapeGroup">
                    <g id="Oval-7-Copy-+-Path" transform="translate(26.000000, 128.000000)">
                        <path d="M20.0222434,12.0000157 C20.0222434,12.5417915 19.9670876,13.0828159 19.8587515,13.6101886 C19.7531119,14.1250369 19.5966438,14.6304919 19.3916674,15.1136847 C19.1913945,15.5883296 18.9429895,16.045722 18.6527239,16.472273 C18.3667854,16.8961313 18.0373871,17.2937822 17.6755349,17.6562707 C17.3128988,18.0171937 16.9138894,18.3456784 16.4902339,18.6328324 C16.0622825,18.9210823 15.6042291,19.1691288 15.129306,19.3703339 C14.6454149,19.5742318 14.1387905,19.7304741 13.6243897,19.8359299 C13.0963176,19.9445481 12.5533199,20 12.0107611,20 C11.4677947,20 10.9248283,19.9445481 10.3975087,19.8359299 C9.88232407,19.7304741 9.37573103,19.5742318 8.89221626,19.3703339 C8.41732448,19.1691288 7.95883207,18.9210823 7.53088073,18.6328324 C7.10722521,18.3457097 6.70821578,18.0171937 6.34636361,17.6562707 C5.98413516,17.2937822 5.6547368,16.8961313 5.3683907,16.472273 C5.07969287,16.045722 4.83088031,15.5882983 4.62982346,15.1136847 C4.4248157,14.6304919 4.26797129,14.1250056 4.1619555,13.6101886 C4.05477953,13.0828159 4,12.5417915 4,12.0000157 C4,11.4578328 4.05474817,10.9156499 4.16198686,10.3894356 C4.26800264,9.87458733 4.42484706,9.36834957 4.62985481,8.88593956 C4.83091167,8.41095027 5.07972423,7.95315078 5.36842206,7.52656844 C5.65476816,7.10236575 5.98416652,6.70546633 6.34639496,6.34257076 C6.70824713,5.98161647 7.10725657,5.65391457 7.53091209,5.36719889 C7.95886342,5.07772783 8.41735583,4.82971266 8.89224761,4.62813184 C9.37576238,4.42379565 9.88232407,4.26717756 10.3975401,4.16250457 C10.9248597,4.05470048 11.4678261,4 12.0107925,4 C12.5533512,4 13.0963176,4.05470048 13.6244211,4.16250457 C14.1388219,4.26720887 14.6454149,4.42382696 15.1293373,4.62813184 C15.6042291,4.82968135 16.0623139,5.07772783 16.4902652,5.36719889 C16.9139207,5.65391457 17.3129615,5.98161647 17.6755662,6.34257076 C18.0374184,6.70546633 18.3668168,7.10236575 18.6527552,7.52656844 C18.9429895,7.95315078 19.1913945,8.41098158 19.3916674,8.88593956 C19.5966438,9.36834957 19.7531119,9.87458733 19.8587515,10.3894356 C19.9670876,10.9156499 20.0222434,11.4578328 20.0222434,12.0000157 Z M9.09170529,5.82070877 C7.18386011,6.7203391 5.75993733,8.47579555 5.31593154,10.5914235 C5.49629322,10.5929891 8.34727441,10.6289342 11.6320706,9.75742122 C10.4479611,7.65663472 9.18285818,5.94222712 9.09170529,5.82070877 Z M12.1988992,10.8094113 C8.67626514,11.8624973 5.29598891,11.7867245 5.17473394,11.7820591 C5.17275849,11.8554836 5.16924658,11.9265598 5.16924658,12.0000157 C5.16924658,13.7550651 5.83230776,15.3550619 6.92216009,16.56486 C6.91980836,16.5613218 8.7920641,13.2445377 12.4840851,12.0523678 C12.5732625,12.0226849 12.6640391,11.9961018 12.7540004,11.9703327 C12.5822931,11.5820752 12.3948763,11.1930035 12.1988992,10.8094113 Z M16.5289903,6.87266757 C15.3244992,5.81209822 13.7429481,5.16878049 12.0107611,5.16878049 C11.4548759,5.16878049 10.9154214,5.2359741 10.3986689,5.36018521 C10.5011414,5.49770353 11.7862184,7.20002505 12.9562488,9.34530461 C15.5377223,8.37891902 16.5121519,6.89765382 16.5289903,6.87266757 Z M13.2203006,13.102354 C13.2050614,13.1073951 13.1898222,13.1117473 13.174928,13.1171955 C9.1383224,14.5223856 7.82011413,17.3542468 7.80585178,17.3851601 C8.96731469,18.2870953 10.4240989,18.8312508 12.0107611,18.8312508 C12.9581929,18.8312508 13.8606598,18.638625 14.6817569,18.2898507 C14.5804446,17.6929673 14.183003,15.6007914 13.2203006,13.102354 Z M15.8338516,17.6656327 C17.3700301,16.630488 18.4610426,14.9867495 18.7653872,13.0827846 C18.6245659,13.0374774 16.7104808,12.4323905 14.5022105,12.7859241 C15.3995976,15.2484477 15.7642091,17.2539232 15.8338516,17.6656327 Z M13.4828159,10.3632909 C13.6416044,10.6890828 13.7953759,11.0206673 13.9373574,11.3539112 C13.9878411,11.473457 14.0371333,11.5906544 14.0852339,11.7078205 C16.4354857,11.4124943 18.7509319,11.90937 18.8499239,11.9296596 C18.8342771,10.3101559 18.2541221,8.82381835 17.2941791,7.66017288 C17.2812603,7.67848987 16.1839765,9.26170399 13.4828159,10.3632909 Z" id="icon-dribbble"></path>
                    </g>
                </g>
            </g>
        </g>
    </g>
</svg>